<svg id="bxl-instagram-alt" xmlns="http://www.w3.org/2000/svg" width="17.646" height="17.675" viewBox="0 0 17.646 17.675">
  <path id="Tracé_31" data-name="Tracé 31" d="M41.565,29.065a6.4,6.4,0,0,0-.411-2.171,4.517,4.517,0,0,0-2.58-2.58,6.473,6.473,0,0,0-2.142-.412c-.943-.042-1.242-.054-3.634-.054s-2.7,0-3.635.054a6.473,6.473,0,0,0-2.141.412,4.514,4.514,0,0,0-2.58,2.58,6.422,6.422,0,0,0-.411,2.141c-.042.944-.055,1.242-.055,3.635s0,2.7.055,3.635a6.463,6.463,0,0,0,.411,2.143,4.517,4.517,0,0,0,2.581,2.579,6.452,6.452,0,0,0,2.141.441c.944.042,1.242.055,3.635.055s2.7,0,3.635-.055a6.458,6.458,0,0,0,2.142-.411,4.522,4.522,0,0,0,2.58-2.58,6.453,6.453,0,0,0,.411-2.143c.042-.943.055-1.242.055-3.635S41.62,30,41.565,29.065ZM32.792,37.2a4.53,4.53,0,1,1,4.53-4.53A4.529,4.529,0,0,1,32.792,37.2Zm4.71-8.171a1.056,1.056,0,1,1,1.055-1.056A1.055,1.055,0,0,1,37.5,29.024Z" transform="translate(-23.976 -23.848)" fill="#fff"/>
  <ellipse id="Ellipse_3" data-name="Ellipse 3" cx="2.943" cy="2.943" rx="2.943" ry="2.943" transform="translate(5.873 5.874)" fill="#fff"/>
</svg>
