<svg xmlns="http://www.w3.org/2000/svg" width="45.415" height="51.243" viewBox="0 0 45.415 51.243">
  <g id="Groupe_80" data-name="Groupe 80" transform="translate(-153 -7895)">
    <path id="Tracé_23" data-name="Tracé 23" d="M27.014,10.815a4.914,4.914,0,0,1,8.446,0L56.238,46.864a4.686,4.686,0,0,1-4.223,6.965H10.458a4.686,4.686,0,0,1-4.223-6.965Z" transform="translate(206.829 7889.385) rotate(90)" fill="#fff"/>
    <g id="phone" transform="translate(161 7908.22)">
      <path id="Tracé_24" data-name="Tracé 24" d="M20.515,17.3l-2.933,2.91a2.122,2.122,0,0,1-1.566.6A13.566,13.566,0,0,1,9.29,18.269,25.95,25.95,0,0,1,1.439,9.706,11.083,11.083,0,0,1,.005,4.823,2.135,2.135,0,0,1,.6,3.236L3.534.3A.97.97,0,0,1,5.122.569l2.36,4.475A1.3,1.3,0,0,1,7.217,6.52L6.136,7.6a.531.531,0,0,0-.11.309,9.212,9.212,0,0,0,2.779,4.1c1.109,1.017,2.3,2.4,3.848,2.722a.609.609,0,0,0,.562-.055L14.472,13.4a1.435,1.435,0,0,1,1.522-.22h.022l4.256,2.513a1.024,1.024,0,0,1,.243,1.609Z" transform="translate(0 0)" fill="#cc1f4a"/>
    </g>
  </g>
</svg>
