<svg xmlns="http://www.w3.org/2000/svg" width="96" height="86" viewBox="0 0 96 86">
  <g id="Groupe_129" data-name="Groupe 129" transform="translate(-1210 -1692)">
    <path id="Polygone_8" data-name="Polygone 8" d="M41.014,12.516a8,8,0,0,1,13.971,0L89.359,74.1A8,8,0,0,1,82.373,86H13.627A8,8,0,0,1,6.641,74.1Z" transform="translate(1306 1778) rotate(180)" fill="#cc1f4a"/>
    <g id="handshake-o" transform="translate(1236 1705.754)">
      <path id="Tracé_13" data-name="Tracé 13" d="M3.5,16.349a1.046,1.046,0,0,0,1.022-.584,1.241,1.241,0,0,0,0-1.168A1.046,1.046,0,0,0,3.5,14.013a1.046,1.046,0,0,0-1.022.584,1.241,1.241,0,0,0,0,1.168A1.046,1.046,0,0,0,3.5,16.349Zm26.877-1.058-.7-.912q-.52-.675-.757-.985t-.693-.894q-.456-.584-.775-.967t-.739-.858q-.42-.474-.821-.894l-2.281,2.555a4.753,4.753,0,0,1-3.8,1.679,4.767,4.767,0,0,1-3.75-1.788,4.461,4.461,0,0,1,.036-5.748l3.23-3.759a3.558,3.558,0,0,0-.931-.3,5.67,5.67,0,0,0-.867-.109q-.338-.009-1.031.009t-.894.018a3.933,3.933,0,0,0-2.883,1.2L9.835,6.423H7.007v9.926q.091,0,.383-.009t.4,0q.109.009.356.036a1.384,1.384,0,0,1,.374.082q.128.055.319.155a1.378,1.378,0,0,1,.338.246L14.6,22.188a6.088,6.088,0,0,0,4.142,2.025,3.083,3.083,0,0,0,2.281-.858,2.528,2.528,0,0,0,2.053-.146A2.476,2.476,0,0,0,24.4,21.659a2.893,2.893,0,0,0,2.317-.8,3.415,3.415,0,0,0,.657-.83,1.578,1.578,0,0,0,.255-.921,1.165,1.165,0,0,0,.785.182,2.619,2.619,0,0,0,1.4-.383,2.328,2.328,0,0,0,.9-.967,2.444,2.444,0,0,0,.219-1.3A2.479,2.479,0,0,0,30.381,15.291Zm2.9,1.058h1.752V7.007h-1.7L30.472,3.722a3.9,3.9,0,0,0-3.084-1.387H24.341a3.34,3.34,0,0,0-2.664,1.223L17.864,7.992a2.057,2.057,0,0,0-.511,1.369,2.1,2.1,0,0,0,.493,1.369,2.562,2.562,0,0,0,2.007.949,2.528,2.528,0,0,0,2.025-.894L25.4,6.806a1.314,1.314,0,0,1,.976-.392,1.168,1.168,0,0,1,1.013,1.524q.292.347,1.022,1.15T29.5,10.328q.529.657,1.505,1.925t1.177,1.542A4.95,4.95,0,0,1,33.282,16.349Zm5.255,0a1.046,1.046,0,0,0,1.022-.584,1.241,1.241,0,0,0,0-1.168,1.186,1.186,0,0,0-2.044,0,1.241,1.241,0,0,0,0,1.168A1.046,1.046,0,0,0,38.537,16.349Zm3.5-10.51V17.517a1.184,1.184,0,0,1-1.168,1.168H32.954a4.6,4.6,0,0,1-1.5,1.943,4.866,4.866,0,0,1-2.281.94,5.885,5.885,0,0,1-1.469,1.487,5.107,5.107,0,0,1-1.87.83,5.091,5.091,0,0,1-1.907,1.487,4.866,4.866,0,0,1-2.345.447,5.553,5.553,0,0,1-2.3.721,5.981,5.981,0,0,1-2.326-.255,9.665,9.665,0,0,1-2.135-.976,10.638,10.638,0,0,1-1.889-1.478L7.7,18.685H1.168a1.122,1.122,0,0,1-.821-.347A1.122,1.122,0,0,1,0,17.517V5.255a1.122,1.122,0,0,1,.347-.821,1.122,1.122,0,0,1,.821-.347H8.85q.255-.255.858-.876t.867-.876q.265-.255.8-.73A5.423,5.423,0,0,1,12.3.921q.383-.21.931-.465A4.445,4.445,0,0,1,14.36.1,7.324,7.324,0,0,1,15.6,0h2.135a5.73,5.73,0,0,1,3.3,1.022A5.73,5.73,0,0,1,24.341,0h3.047a6.624,6.624,0,0,1,1.223.109,7.229,7.229,0,0,1,1.031.265,4.194,4.194,0,0,1,.94.484q.493.328.812.566a6.763,6.763,0,0,1,.785.721q.465.484.712.766t.748.876q.5.593.757.885h6.478A1.184,1.184,0,0,1,42.04,5.839Z" transform="translate(0 0)" fill="#fff"/>
    </g>
  </g>
</svg>
