<svg xmlns="http://www.w3.org/2000/svg" width="96" height="86" viewBox="0 0 96 86">
  <g id="Groupe_128" data-name="Groupe 128" transform="translate(-1516 -1692)">
    <path id="Polygone_9" data-name="Polygone 9" d="M41.014,12.516a8,8,0,0,1,13.971,0L89.359,74.1A8,8,0,0,1,82.373,86H13.627A8,8,0,0,1,6.641,74.1Z" transform="translate(1612 1778) rotate(180)" fill="#cc1f4a"/>
    <g id="internet-of-things-line" transform="translate(1532.408 1692.77)">
      <path id="Tracé_14" data-name="Tracé 14" d="M161.856,76.7a5.522,5.522,0,0,1,2.167.746h.058a17.615,17.615,0,0,0-.711-9.751,1.161,1.161,0,1,0-2.179.8A15.366,15.366,0,0,1,161.856,76.7Z" transform="translate(-115.283 -45.774)" fill="#fff"/>
      <path id="Tracé_15" data-name="Tracé 15" d="M111.231,152.331a15.145,15.145,0,0,1-7.071,3.285,1.169,1.169,0,0,0,.2,2.33h.21a17.661,17.661,0,0,0,8.4-3.961V153.9a5.44,5.44,0,0,1-1.736-1.573Z" transform="translate(-69.936 -112.502)" fill="#fff"/>
      <path id="Tracé_16" data-name="Tracé 16" d="M52.517,155.713a15.365,15.365,0,0,1-5-1.876,17.985,17.985,0,0,1-1.9-1.293,5.464,5.464,0,0,1-1.7,1.608,18.524,18.524,0,0,0,2.412,1.724,17.94,17.94,0,0,0,5.755,2.167h.221a1.17,1.17,0,1,0,.21-2.33Z" transform="translate(-23.698 -112.668)" fill="#fff"/>
      <path id="Tracé_17" data-name="Tracé 17" d="M17.4,77.341a4.824,4.824,0,0,0,.7-.1,15.145,15.145,0,0,1,.629-8.225,1.167,1.167,0,1,0-2.19-.8,17.475,17.475,0,0,0-.652,9.821A5.557,5.557,0,0,1,17.4,77.341Z" transform="translate(-1.462 -46.167)" fill="#fff"/>
      <path id="Tracé_18" data-name="Tracé 18" d="M47.784,33.329a3.728,3.728,0,0,0-2.831-.489,3.81,3.81,0,0,0-1.631.9l-4.508-2.61a8,8,0,0,0-3.227-9.821l-.128-.082a7.689,7.689,0,0,0-2.819-.944V15.854a3.751,3.751,0,0,0,2.19-1.747,3.844,3.844,0,0,0-1.316-5.242,3.67,3.67,0,0,0-2.819-.373,3.775,3.775,0,0,0-2.33,1.759,3.844,3.844,0,0,0,1.316,5.2,3.332,3.332,0,0,0,.862.408v4.427A7.736,7.736,0,0,0,24.881,24.1a7.98,7.98,0,0,0-.489,6.99l-4.66,2.668a4.415,4.415,0,0,0-.524-.4,3.728,3.728,0,0,0-5.091,1.375,3.844,3.844,0,0,0,1.281,5.2,3.74,3.74,0,0,0,1.922.536,3.413,3.413,0,0,0,.909-.116A3.775,3.775,0,0,0,20.9,35.566l4.52-2.61a8.225,8.225,0,0,0,2.2,1.992,7.561,7.561,0,0,0,10.17-1.98l4.462,2.575a3.833,3.833,0,0,0,1.689,4.241,3.7,3.7,0,0,0,5.126-1.316A3.844,3.844,0,0,0,47.784,33.329ZM18.776,37.546a1.631,1.631,0,0,1-1.06.746,1.584,1.584,0,0,1-1.27-.175,1.724,1.724,0,0,1-.582-2.33,1.631,1.631,0,0,1,1.025-.769,1.55,1.55,0,0,1,.4-.058,1.631,1.631,0,0,1,.874.256,1.724,1.724,0,0,1,.617,2.33ZM30.17,11.3a1.631,1.631,0,0,1,1.025-.769,1.55,1.55,0,0,1,.4-.058,1.654,1.654,0,0,1,.839.233,1.724,1.724,0,0,1,.582,2.33,1.631,1.631,0,0,1-1.025.769,1.584,1.584,0,0,1-1.235-.175,1.724,1.724,0,0,1-.582-2.33Zm2.808,22.507a5.58,5.58,0,0,1-4.287-.629,5.906,5.906,0,0,1-2.015-8,5.685,5.685,0,0,1,4.916-2.831,5.6,5.6,0,0,1,2.866.781,5.906,5.906,0,0,1,2.015,8,5.662,5.662,0,0,1-3.495,2.679Zm14.271,3.588a1.689,1.689,0,0,1-1.025.781,1.584,1.584,0,0,1-1.235-.186,1.724,1.724,0,0,1-.582-2.33,1.619,1.619,0,0,1,1.048-.839,2.248,2.248,0,0,1,.4,0,1.526,1.526,0,0,1,.8.221A1.724,1.724,0,0,1,47.248,37.395Z" transform="translate(0 0)" fill="#fff"/>
      <path id="Tracé_19" data-name="Tracé 19" d="M35.535,28.976a15.145,15.145,0,0,1,6.233-4.392,5.825,5.825,0,0,1-.2-2.412,17.65,17.65,0,0,0-7.805,5.254,1.176,1.176,0,0,0,1.771,1.549Z" transform="translate(-15.535 -10.792)" fill="#fff"/>
      <path id="Tracé_20" data-name="Tracé 20" d="M122.87,25.791a15.273,15.273,0,0,1,3.8,3.227,1.165,1.165,0,1,0,1.771-1.514,17.475,17.475,0,0,0-4.38-3.728,18.488,18.488,0,0,0-3.425-1.549,5.58,5.58,0,0,1-.175,2.4,16.426,16.426,0,0,1,2.412,1.165Z" transform="translate(-83.508 -10.834)" fill="#fff"/>
    </g>
  </g>
</svg>
