<svg xmlns="http://www.w3.org/2000/svg" width="45.415" height="51.243" viewBox="0 0 45.415 51.243">
  <g id="Groupe_79" data-name="Groupe 79" transform="translate(-153 -7963)">
    <g id="Groupe_68" data-name="Groupe 68" transform="translate(67 127.385)">
      <g id="Groupe_67" data-name="Groupe 67">
        <g id="Groupe_66" data-name="Groupe 66">
          <g id="Groupe_65" data-name="Groupe 65">
            <g id="Groupe_64" data-name="Groupe 64">
              <g id="Groupe_63" data-name="Groupe 63">
                <g id="Groupe_62" data-name="Groupe 62">
                  <path id="Tracé_25" data-name="Tracé 25" d="M27.014,10.815a4.914,4.914,0,0,1,8.446,0L56.238,46.864a4.686,4.686,0,0,1-4.223,6.965H10.458a4.686,4.686,0,0,1-4.223-6.965Z" transform="translate(139.829 7830) rotate(90)" fill="#fff"/>
                </g>
              </g>
            </g>
          </g>
        </g>
      </g>
    </g>
    <g id="pin" transform="translate(164 7976.837)">
      <path id="Tracé_26" data-name="Tracé 26" d="M7.321,1.32a7.14,7.14,0,0,1,5.208,2.137A7.018,7.018,0,0,1,14.69,8.641a10.018,10.018,0,0,1-.762,3.513,20.376,20.376,0,0,1-1.842,3.685q-1.081,1.7-2.162,3.194T8.107,21.415l-.786.835q-.295-.295-.786-.884T4.79,19.081q-1.253-1.7-2.235-3.292A22.461,22.461,0,0,1,.786,12.178,9.94,9.94,0,0,1,0,8.641,7.058,7.058,0,0,1,2.137,3.457,7.058,7.058,0,0,1,7.321,1.32Zm0,9.925a2.592,2.592,0,0,0,1.867-.762,2.552,2.552,0,0,0,0-3.685,2.592,2.592,0,0,0-1.867-.762,2.6,2.6,0,0,0-2.6,2.6,2.6,2.6,0,0,0,2.6,2.6Z" transform="translate(0)" fill="#cc1f4a"/>
    </g>
  </g>
</svg>
