<svg xmlns="http://www.w3.org/2000/svg" width="96" height="86" viewBox="0 0 96 86">
  <g id="Groupe_127" data-name="Groupe 127" transform="translate(-1516 -1435)">
    <path id="Polygone_6" data-name="Polygone 6" d="M41.014,12.516a8,8,0,0,1,13.971,0L89.359,74.1A8,8,0,0,1,82.373,86H13.627A8,8,0,0,1,6.641,74.1Z" transform="translate(1612 1521) rotate(180)" fill="#cc1f4a"/>
    <g id="users-line" transform="translate(1531.01 1424.624)">
      <path id="Tracé_5" data-name="Tracé 5" d="M74.72,51.256a5.374,5.374,0,1,0-5.43-5.43A5.438,5.438,0,0,0,74.72,51.256Zm-.111-8.532h0a3.216,3.216,0,0,1,3.213,3.213,3.158,3.158,0,0,1-6.316,0A3.194,3.194,0,0,1,74.609,42.724Z" transform="translate(-42.219 -14.169)" fill="#fff"/>
      <path id="Tracé_6" data-name="Tracé 6" d="M137.56,78.424a10.971,10.971,0,0,0-7.756-2.77h-.886a7.388,7.388,0,0,1-1,2.327,10.75,10.75,0,0,1,1.884-.111,9.216,9.216,0,0,1,5.873,1.773v7.978h2.216V78.757Z" transform="translate(-88.661 -42.002)" fill="#fff"/>
      <path id="Tracé_7" data-name="Tracé 7" d="M118.811,26.8A2.706,2.706,0,0,1,123.8,28.9a2.766,2.766,0,0,1-2.438,1.662,1.886,1.886,0,0,1-.776-.111,7.85,7.85,0,0,1,.111,1.551v.665c.222,0,.443.111.665.111a4.931,4.931,0,1,0,.111-9.862,4.751,4.751,0,0,0-4.211,2.438,4.731,4.731,0,0,1,1.551,1.44Z" transform="translate(-80.217 -0.236)" fill="#fff"/>
      <path id="Tracé_8" data-name="Tracé 8" d="M25.963,78.514a7.388,7.388,0,0,1-1-2.327h-.886a11.4,11.4,0,0,0-7.756,2.659l-.332.332v8.865h2.216V80.065a9.419,9.419,0,0,1,5.873-1.773A9.758,9.758,0,0,1,25.963,78.514Z" transform="translate(0 -42.424)" fill="#fff"/>
      <path id="Tracé_9" data-name="Tracé 9" d="M36.086,32.433a1.405,1.405,0,0,0,.665-.111v-.665a6.814,6.814,0,0,1,.111-1.551,1.886,1.886,0,0,1-.776.111,2.659,2.659,0,1,1,0-5.319,2.8,2.8,0,0,1,2.549,1.662A11.031,11.031,0,0,1,40.3,25.009a4.922,4.922,0,1,0-4.211,7.424Z" transform="translate(-12.007 0)" fill="#fff"/>
      <path id="Tracé_10" data-name="Tracé 10" d="M71.14,105.347l-.222-.332a11.184,11.184,0,0,0-8.643-3.767,11.415,11.415,0,0,0-8.754,3.767l-.222.332v8.421a1.868,1.868,0,0,0,1.884,1.884H69.367a1.942,1.942,0,0,0,1.884-1.884v-8.421Zm-2.216,8.089H55.516v-7.313a9.456,9.456,0,0,1,6.759-2.659,8.937,8.937,0,0,1,6.648,2.659Z" transform="translate(-29.554 -62.276)" fill="#fff"/>
    </g>
  </g>
</svg>
