<svg xmlns="http://www.w3.org/2000/svg" width="45.415" height="51.243" viewBox="0 0 45.415 51.243">
  <g id="Groupe_81" data-name="Groupe 81" transform="translate(-153 -7827)">
    <path id="Tracé_27" data-name="Tracé 27" d="M27.014,10.815a4.914,4.914,0,0,1,8.446,0L56.238,46.864a4.686,4.686,0,0,1-4.223,6.965H10.458a4.686,4.686,0,0,1-4.223-6.965Z" transform="translate(206.829 7821.385) rotate(90)" fill="#fff"/>
    <g id="mail" transform="translate(149.84 7815.175)">
      <path id="Tracé_28" data-name="Tracé 28" d="M28.639,30.4H14.514a2.357,2.357,0,0,0-2.354,2.354V42.844A2.357,2.357,0,0,0,14.514,45.2H28.639a2.357,2.357,0,0,0,2.354-2.354V32.754A2.357,2.357,0,0,0,28.639,30.4Zm-.6,3.894L21.99,39a.673.673,0,0,1-.826,0L15.11,34.294a.673.673,0,1,1,.826-1.062l5.641,4.387,5.641-4.387a.673.673,0,1,1,.826,1.062Z" transform="translate(0 0)" fill="#cc1f4a"/>
    </g>
  </g>
</svg>
