<svg xmlns="http://www.w3.org/2000/svg" width="96" height="86" viewBox="0 0 96 86">
  <g id="Groupe_130" data-name="Groupe 130" transform="translate(-915 -1692)">
    <path id="Polygone_7" data-name="Polygone 7" d="M41.014,12.516a8,8,0,0,1,13.971,0L89.359,74.1A8,8,0,0,1,82.373,86H13.627A8,8,0,0,1,6.641,74.1Z" transform="translate(1011 1778) rotate(180)" fill="#cc1f4a"/>
    <g id="extension-puzzle-outline" transform="translate(931.84 1688.839)">
      <path id="Tracé_11" data-name="Tracé 11" d="M27.143,12.161h.094a5.383,5.383,0,0,1,5.23,5.39v1.11h5.139a4.463,4.463,0,0,1,4.458,4.458v5.139h1.11a5.324,5.324,0,1,1,.067,10.648H42.063v5.2a4.463,4.463,0,0,1-4.458,4.458H31.825A1.464,1.464,0,0,1,30.362,47.1V44.85a2.554,2.554,0,0,0-.912-1.962,3.535,3.535,0,0,0-2.3-.825A3.386,3.386,0,0,0,23.861,45.4v1.7A1.464,1.464,0,0,1,22.4,48.565H16.68a4.541,4.541,0,0,1-4.52-4.516V38.326a1.464,1.464,0,0,1,1.463-1.463h2.252a2.869,2.869,0,0,0,2.039-.9,3.42,3.42,0,0,0,.992-2.428,3.211,3.211,0,0,0-3.1-3.175H13.623A1.464,1.464,0,0,1,12.16,28.9V23.181a4.541,4.541,0,0,1,4.516-4.52h5.143V17.485a5.357,5.357,0,0,1,1.593-3.8A5.3,5.3,0,0,1,27.143,12.161Zm16.1,24.145a2.763,2.763,0,0,0,2.724-2.8,2.727,2.727,0,0,0-2.79-2.652H40.926A1.464,1.464,0,0,1,39.463,29.4V23.119a1.86,1.86,0,0,0-1.858-1.858H31.329A1.464,1.464,0,0,1,29.866,19.8V17.551a2.77,2.77,0,0,0-2.675-2.79l-.048-1.3v1.3a2.709,2.709,0,0,0-1.909.781,2.741,2.741,0,0,0-.815,1.943V19.8a1.464,1.464,0,0,1-1.463,1.463H16.68a1.933,1.933,0,0,0-1.919,1.923v4.577h1.049A5.853,5.853,0,0,1,21.5,33.5a6.036,6.036,0,0,1-1.74,4.291,5.448,5.448,0,0,1-3.89,1.672H14.76v4.581a1.933,1.933,0,0,0,1.923,1.919h4.577V45.4A5.944,5.944,0,0,1,27,39.465a6.188,6.188,0,0,1,4.159,1.463,5.143,5.143,0,0,1,1.8,3.922v1.114h4.643a1.86,1.86,0,0,0,1.858-1.858V37.769a1.464,1.464,0,0,1,1.463-1.463Z" transform="translate(3)" fill="#fff"/>
    </g>
  </g>
</svg>
