<svg xmlns="http://www.w3.org/2000/svg" width="96" height="85.081" viewBox="0 0 96 85.081">
  <g id="Groupe_125" data-name="Groupe 125" transform="translate(-915 -1435)">
    <path id="Polygone_4" data-name="Polygone 4" d="M41.032,12.35a8,8,0,0,1,13.935,0l34.3,60.8A8,8,0,0,1,82.3,85.081H13.7A8,8,0,0,1,6.731,73.15Z" transform="translate(1011 1520.081) rotate(180)" fill="#cc1f4a"/>
    <g id="content-delivery-network" transform="translate(932 1432.896)">
      <circle id="Ellipse_1" data-name="Ellipse 1" cx="2.153" cy="2.153" r="2.153" transform="translate(33.534 33.523)" fill="#fff"/>
      <circle id="Ellipse_2" data-name="Ellipse 2" cx="2.584" cy="2.584" r="2.584" transform="translate(15.445 15.435)" fill="#fff"/>
      <path id="Tracé_11" data-name="Tracé 11" d="M142.99,147.98a4.99,4.99,0,1,1,4.99-4.99A4.99,4.99,0,0,1,142.99,147.98Zm0-7.485a2.495,2.495,0,1,0,2.495,2.495A2.495,2.495,0,0,0,142.99,140.495Z" transform="translate(-99.803 -99.81)" fill="#fff"/>
      <path id="Tracé_12" data-name="Tracé 12" d="M46.929,29.458A17.516,17.516,0,0,0,29.465,11.994a16.271,16.271,0,0,0-8.483,2.245l1.372,2.121a30.47,30.47,0,0,1,2.994-1.247,31.355,31.355,0,0,0-3.368,13.1H14.495a13.908,13.908,0,0,1,1.746-5.863L14.37,20.726A17.267,17.267,0,0,0,12,29.458,17.463,17.463,0,0,0,29.467,46.923a16.674,16.674,0,0,0,6.484-1.247l-.748-2.37a14.274,14.274,0,0,1-6.487,1.123,26.285,26.285,0,0,1-4.241-13.722H46.8A4.244,4.244,0,0,0,46.929,29.458ZM25.473,43.929a16.242,16.242,0,0,1-6.612-3.867,15.6,15.6,0,0,1-4.366-9.356H21.98a31.189,31.189,0,0,0,3.493,13.223Zm-1-15.718a26.753,26.753,0,0,1,4.117-13.722h1.746a26.753,26.753,0,0,1,4.117,13.722Zm12.475,0a29.039,29.039,0,0,0-3.493-13.223A15.084,15.084,0,0,1,44.309,28.211Z" transform="translate(0 0)" fill="#fff"/>
    </g>
  </g>
</svg>
