<svg xmlns="http://www.w3.org/2000/svg" width="96" height="86" viewBox="0 0 96 86">
  <g id="Groupe_126" data-name="Groupe 126" transform="translate(-1210 -1435)">
    <path id="Polygone_5" data-name="Polygone 5" d="M41.014,12.516a8,8,0,0,1,13.971,0L89.359,74.1A8,8,0,0,1,82.373,86H13.627A8,8,0,0,1,6.641,74.1Z" transform="translate(1306 1521) rotate(180)" fill="#cc1f4a"/>
    <g id="eye" transform="translate(1238 1421)">
      <g id="Groupe_18" data-name="Groupe 18" transform="translate(0 30)">
        <path id="Tracé_3" data-name="Tracé 3" d="M38.983,43.4S31.674,30,19.492,30,0,43.4,0,43.4,7.309,56.8,19.492,56.8,38.983,43.4,38.983,43.4Zm-36.125,0A32,32,0,0,1,6.9,38.423c3.136-3.141,7.424-5.986,12.589-5.986s9.451,2.846,12.592,5.986A32,32,0,0,1,36.128,43.4c-.141.212-.3.446-.475.7a32.13,32.13,0,0,1-3.569,4.276c-3.141,3.141-7.429,5.986-12.592,5.986S10.041,51.519,6.9,48.378A32,32,0,0,1,2.856,43.4Z" transform="translate(0 -30)" fill="#fff"/>
        <path id="Tracé_4" data-name="Tracé 4" d="M62.528,56.436a6.091,6.091,0,1,0,6.091,6.091,6.091,6.091,0,0,0-6.091-6.091ZM54,62.528a8.528,8.528,0,1,1,8.528,8.528A8.528,8.528,0,0,1,54,62.528Z" transform="translate(-43.036 -49.127)" fill="#fff"/>
      </g>
    </g>
  </g>
</svg>
