<svg id="twitter" xmlns="http://www.w3.org/2000/svg" width="19.829" height="16.112" viewBox="0 0 19.829 16.112">
  <g id="Groupe_91" data-name="Groupe 91" transform="translate(0 0)">
    <path id="Tracé_32" data-name="Tracé 32" d="M6.229,40.1A11.5,11.5,0,0,0,17.805,28.535c0-.174,0-.349-.007-.523A8.285,8.285,0,0,0,19.829,25.9a8.251,8.251,0,0,1-2.341.642,4.091,4.091,0,0,0,1.793-2.252,8.1,8.1,0,0,1-2.586.983A4.072,4.072,0,0,0,9.76,28.986a11.557,11.557,0,0,1-8.386-4.25,4.076,4.076,0,0,0,1.262,5.431,4.118,4.118,0,0,1-1.842-.506v.056a4.075,4.075,0,0,0,3.262,3.988,3.97,3.97,0,0,1-1.072.143,4,4,0,0,1-.761-.071,4.069,4.069,0,0,0,3.8,2.822A8.165,8.165,0,0,1,.967,38.343,7.832,7.832,0,0,1,0,38.287,11.58,11.58,0,0,0,6.229,40.1Z" transform="translate(0 -23.99)" fill="#fff"/>
  </g>
</svg>
